<?xml version="1.0" encoding="UTF-8" standalone="no"?>
<!-- Created with Inkscape (http://www.inkscape.org/) -->

<svg
   width="200"
   height="200"
   viewBox="0 0 52.916665 52.916666"
   version="1.1"
   id="svg1"
   inkscape:version="1.3 (0e150ed6c4, 2023-07-21)"
   sodipodi:docname="typeLogo.svg"
   xmlns:inkscape="http://www.inkscape.org/namespaces/inkscape"
   xmlns:sodipodi="http://sodipodi.sourceforge.net/DTD/sodipodi-0.dtd"
   xmlns="http://www.w3.org/2000/svg"
   xmlns:svg="http://www.w3.org/2000/svg">
  <sodipodi:namedview
     id="namedview1"
     pagecolor="#ffffff"
     bordercolor="#000000"
     borderopacity="0.25"
     inkscape:showpageshadow="2"
     inkscape:pageopacity="0.0"
     inkscape:pagecheckerboard="0"
     inkscape:deskcolor="#d1d1d1"
     inkscape:document-units="mm"
     inkscape:zoom="1.0242632"
     inkscape:cx="-239.19633"
     inkscape:cy="139.12439"
     inkscape:window-width="1920"
     inkscape:window-height="1009"
     inkscape:window-x="-8"
     inkscape:window-y="-8"
     inkscape:window-maximized="1"
     inkscape:current-layer="layer1" />
  <defs
     id="defs1" />
  <g
     inkscape:label="Taso 1"
     inkscape:groupmode="layer"
     id="layer1">
    <rect
       style="fill:#0058c2;fill-opacity:1;stroke:none;stroke-width:0.67488;stroke-linecap:round;stroke-miterlimit:7.1;paint-order:stroke fill markers"
       id="rect1-1-1"
       width="39.819187"
       height="8.1282272"
       x="6.5487399"
       y="22.39422"
       ry="4.0641141" />
    <rect
       style="fill:#ffffff;fill-opacity:1;stroke:none;stroke-width:0.84108;stroke-linecap:round;stroke-miterlimit:7.1;paint-order:stroke fill markers"
       id="rect2"
       width="20.085762"
       height="1.9178967"
       x="9.1945724"
       y="25.499386"
       ry="0.95894837" />
    <rect
       style="fill:#ffffff;fill-opacity:0.575949;stroke:none;stroke-width:0.322731;stroke-linecap:round;stroke-miterlimit:7.1;paint-order:stroke fill markers"
       id="rect2-3"
       width="6.2103324"
       height="0.91328418"
       x="23.263184"
       y="-31.516327"
       ry="0.45664209"
       transform="rotate(90)" />
    <g
       id="use2"
       transform="matrix(0.01315673,-0.00396859,-0.00396859,-0.01315673,39.115024,30.714396)">&#10;	<g
   id="g4">&#10;		<path
   fill-rule="evenodd"
   clip-rule="evenodd"
   fill="#ffffff"
   d="m 209.5,105.85 c 0,-0.4 0,-0.817 0,-1.25 l -0.15,-68.4 0.15,-15.55 -0.15,15.55 0.15,68.4 c 0,0.433 0,0.85 0,1.25 v 32.8 l 8.4,-1 c 9.167,-0.667 22.7,-1 40.6,-1 30.833,0 52.25,-13.667 64.25,-41 3.767,-8.533 6.35,-17.933 7.75,-28.2 0.7,-5.133 1.033,-9.4 1,-12.8 l -0.25,-51 c -6.167,-121.433 -18.083,-214.5 -35.75,-279.2 -17.633,-64.7 -33.3,-115.967 -47,-153.8 l -364,-1 c -36.2,172.967 -108.183,307.633 -215.95,404 24.7,114.733 82.35,116.05 172.95,3.95 v 373.05 c 0.1,3 0.417,6.55 0.95,10.649 1.3,10.267 3.683,19.667 7.15,28.2 10.367,25.533 28.333,39.134 53.9,40.8 25.6,-1.666 43.583,-15.267 53.95,-40.8 3.466,-8.533 5.85,-17.934 7.15,-28.2 0.533,-4.1 0.833,-7.649 0.9,-10.649 v -125.1 -117 117 h 8.4 c 9.167,-0.666 22.7,-1 40.6,-1 30.833,0 52.25,-13.666 64.25,-41 3.767,-8.533 6.35,-17.933 7.75,-28.2 0.567,-4.1 0.9,-7.65 1,-10.65 v -75 75 42 h 8.4 c 9.167,-0.667 22.7,-1 40.6,-1 30.833,0 52.25,-13.667 64.25,-41 3.767,-8.534 6.35,-17.934 7.75,-28.2 0.567,-4.1 0.9,-7.65 1,-10.65 z m -0.45,-94.15 0.3,24.5 z"
   id="path3" />
&#10;		&#10;			<path
   fill-rule="evenodd"
   clip-rule="evenodd"
   fill="none"
   stroke="#000000"
   stroke-width="65.65"
   stroke-linecap="round"
   stroke-linejoin="round"
   stroke-miterlimit="3"
   d="m 209.5,105.85 c -0.1,3 -0.433,6.55 -1,10.65 -1.4,10.267 -3.983,19.667 -7.75,28.2 -12,27.333 -33.417,41 -64.25,41 -17.9,0 -31.433,0.333 -40.6,1 h -8.4 v -42 -75 m 0,75 c -0.1,3 -0.433,6.55 -1,10.65 -1.4,10.267 -3.983,19.667 -7.75,28.2 -12,27.334 -33.417,41 -64.25,41 -17.9,0 -31.433,0.334 -40.6,1 h -8.4 v -117 m 0,117 v 125.1 c -0.067,3 -0.367,6.55 -0.9,10.649 -1.3,10.267 -3.684,19.667 -7.15,28.2 -10.367,25.533 -28.35,39.134 -53.95,40.8 -25.567,-1.666 -43.533,-15.267 -53.9,-40.8 -3.467,-8.533 -5.85,-17.934 -7.15,-28.2 -0.534,-4.1 -0.85,-7.649 -0.95,-10.649 V -22.4 c -90.6,112.1 -148.25,110.783 -172.95,-3.95 107.767,-96.367 179.75,-231.033 215.95,-404 l 364,1 c 13.7,37.833 29.367,89.1 47,153.8 17.667,64.7 29.583,157.767 35.75,279.2 l 0.25,51 c 0.033,3.4 -0.3,7.667 -1,12.8 -1.4,10.267 -3.983,19.667 -7.75,28.2 -12,27.333 -33.417,41 -64.25,41 -17.9,0 -31.433,0.333 -40.6,1 l -8.4,1 v -32.8 c 0,-0.4 0,-0.817 0,-1.25 l -0.15,-68.4 0.15,-15.55 m -0.45,-8.95 0.3,24.5"
   id="path4" />
&#10;	</g>
&#10;</g>
  </g>
</svg>
